<svg width="187" height="20" viewBox="0 0 187 20" fill="none" xmlns="http://www.w3.org/2000/svg">
<path d="M10.032 19.288C8.32 19.288 6.768 18.92 5.376 18.184C4 17.432 2.912 16.4 2.112 15.088C1.328 13.76 0.936 12.264 0.936 10.6C0.936 8.936 1.328 7.448 2.112 6.136C2.912 4.808 4 3.776 5.376 3.04C6.768 2.288 8.328 1.912 10.056 1.912C11.512 1.912 12.824 2.168 13.992 2.68C15.176 3.192 16.168 3.928 16.968 4.888L14.472 7.192C13.336 5.88 11.928 5.224 10.248 5.224C9.208 5.224 8.28 5.456 7.464 5.92C6.648 6.368 6.008 7 5.544 7.816C5.096 8.632 4.872 9.56 4.872 10.6C4.872 11.64 5.096 12.568 5.544 13.384C6.008 14.2 6.648 14.84 7.464 15.304C8.28 15.752 9.208 15.976 10.248 15.976C11.928 15.976 13.336 15.312 14.472 13.984L16.968 16.288C16.168 17.264 15.176 18.008 13.992 18.52C12.808 19.032 11.488 19.288 10.032 19.288ZM24.4438 5.896C26.4438 5.896 27.9798 6.376 29.0518 7.336C30.1238 8.28 30.6598 9.712 30.6598 11.632V19H27.1558V17.392C26.4518 18.592 25.1398 19.192 23.2198 19.192C22.2278 19.192 21.3638 19.024 20.6278 18.688C19.9078 18.352 19.3558 17.888 18.9718 17.296C18.5878 16.704 18.3958 16.032 18.3958 15.28C18.3958 14.08 18.8438 13.136 19.7398 12.448C20.6518 11.76 22.0518 11.416 23.9398 11.416H26.9158C26.9158 10.6 26.6678 9.976 26.1718 9.544C25.6758 9.096 24.9318 8.872 23.9398 8.872C23.2518 8.872 22.5718 8.984 21.8998 9.208C21.2438 9.416 20.6838 9.704 20.2198 10.072L18.8758 7.456C19.5798 6.96 20.4198 6.576 21.3958 6.304C22.3878 6.032 23.4038 5.896 24.4438 5.896ZM24.1558 16.672C24.7958 16.672 25.3638 16.528 25.8598 16.24C26.3558 15.936 26.7078 15.496 26.9158 14.92V13.6H24.3478C22.8118 13.6 22.0438 14.104 22.0438 15.112C22.0438 15.592 22.2278 15.976 22.5958 16.264C22.9798 16.536 23.4998 16.672 24.1558 16.672ZM38.3923 19.192C37.3203 19.192 36.2723 19.064 35.2483 18.808C34.2243 18.536 33.4083 18.2 32.8003 17.8L34.0483 15.112C34.6243 15.48 35.3203 15.784 36.1363 16.024C36.9523 16.248 37.7523 16.36 38.5363 16.36C40.1203 16.36 40.9123 15.968 40.9123 15.184C40.9123 14.816 40.6963 14.552 40.2643 14.392C39.8323 14.232 39.1683 14.096 38.2723 13.984C37.2163 13.824 36.3443 13.64 35.6563 13.432C34.9683 13.224 34.3683 12.856 33.8563 12.328C33.3603 11.8 33.1123 11.048 33.1123 10.072C33.1123 9.256 33.3443 8.536 33.8083 7.912C34.2883 7.272 34.9763 6.776 35.8723 6.424C36.7843 6.072 37.8563 5.896 39.0883 5.896C40.0003 5.896 40.9043 6 41.8003 6.208C42.7123 6.4 43.4643 6.672 44.0563 7.024L42.8083 9.688C41.6723 9.048 40.4323 8.728 39.0883 8.728C38.2883 8.728 37.6883 8.84 37.2883 9.064C36.8883 9.288 36.6883 9.576 36.6883 9.928C36.6883 10.328 36.9043 10.608 37.3363 10.768C37.7683 10.928 38.4563 11.08 39.4003 11.224C40.4563 11.4 41.3203 11.592 41.9923 11.8C42.6643 11.992 43.2483 12.352 43.7443 12.88C44.2403 13.408 44.4883 14.144 44.4883 15.088C44.4883 15.888 44.2483 16.6 43.7683 17.224C43.2883 17.848 42.5843 18.336 41.6563 18.688C40.7443 19.024 39.6563 19.192 38.3923 19.192ZM46.7983 6.088H50.5423V19H46.7983V6.088ZM48.6703 4.288C47.9823 4.288 47.4223 4.088 46.9903 3.688C46.5583 3.288 46.3423 2.792 46.3423 2.2C46.3423 1.608 46.5583 1.112 46.9903 0.711999C47.4223 0.311999 47.9823 0.111999 48.6703 0.111999C49.3583 0.111999 49.9183 0.303999 50.3503 0.688C50.7823 1.072 50.9983 1.552 50.9983 2.128C50.9983 2.752 50.7823 3.272 50.3503 3.688C49.9183 4.088 49.3583 4.288 48.6703 4.288ZM61.8651 5.896C63.4651 5.896 64.7531 6.376 65.7291 7.336C66.7211 8.296 67.2171 9.72 67.2171 11.608V19H63.4731V12.184C63.4731 11.16 63.2491 10.4 62.8011 9.904C62.3531 9.392 61.7051 9.136 60.8571 9.136C59.9131 9.136 59.1611 9.432 58.6011 10.024C58.0411 10.6 57.7611 11.464 57.7611 12.616V19H54.0171V6.088H57.5931V7.6C58.0891 7.056 58.7051 6.64 59.4411 6.352C60.1771 6.048 60.9851 5.896 61.8651 5.896ZM76.8954 19.192C75.5354 19.192 74.3114 18.912 73.2234 18.352C72.1514 17.776 71.3114 16.984 70.7034 15.976C70.0954 14.968 69.7914 13.824 69.7914 12.544C69.7914 11.264 70.0954 10.12 70.7034 9.112C71.3114 8.104 72.1514 7.32 73.2234 6.76C74.3114 6.184 75.5354 5.896 76.8954 5.896C78.2554 5.896 79.4714 6.184 80.5434 6.76C81.6154 7.32 82.4554 8.104 83.0634 9.112C83.6714 10.12 83.9754 11.264 83.9754 12.544C83.9754 13.824 83.6714 14.968 83.0634 15.976C82.4554 16.984 81.6154 17.776 80.5434 18.352C79.4714 18.912 78.2554 19.192 76.8954 19.192ZM76.8954 16.12C77.8554 16.12 78.6394 15.8 79.2474 15.16C79.8714 14.504 80.1834 13.632 80.1834 12.544C80.1834 11.456 79.8714 10.592 79.2474 9.952C78.6394 9.296 77.8554 8.968 76.8954 8.968C75.9354 8.968 75.1434 9.296 74.5194 9.952C73.8954 10.592 73.5834 11.456 73.5834 12.544C73.5834 13.632 73.8954 14.504 74.5194 15.16C75.1434 15.8 75.9354 16.12 76.8954 16.12Z" fill="#EB2655"/>
<path d="M93.5389 2.2H97.4269V15.832H105.851V19H93.5389V2.2ZM120.314 12.592C120.314 12.64 120.29 12.976 120.242 13.6H110.474C110.65 14.4 111.066 15.032 111.722 15.496C112.378 15.96 113.194 16.192 114.17 16.192C114.842 16.192 115.434 16.096 115.946 15.904C116.474 15.696 116.962 15.376 117.41 14.944L119.402 17.104C118.186 18.496 116.41 19.192 114.074 19.192C112.618 19.192 111.33 18.912 110.21 18.352C109.09 17.776 108.226 16.984 107.618 15.976C107.01 14.968 106.706 13.824 106.706 12.544C106.706 11.28 107.002 10.144 107.594 9.136C108.202 8.112 109.026 7.32 110.066 6.76C111.122 6.184 112.298 5.896 113.594 5.896C114.858 5.896 116.002 6.168 117.026 6.712C118.05 7.256 118.85 8.04 119.426 9.064C120.018 10.072 120.314 11.248 120.314 12.592ZM113.618 8.728C112.77 8.728 112.058 8.968 111.482 9.448C110.906 9.928 110.554 10.584 110.426 11.416H116.786C116.658 10.6 116.306 9.952 115.73 9.472C115.154 8.976 114.45 8.728 113.618 8.728ZM130.663 19L127.831 15.04L124.903 19H120.823L125.791 12.496L120.991 6.088H125.191L127.927 9.856L130.735 6.088H134.719L129.919 12.4L134.911 19H130.663ZM136.728 6.088H140.472V19H136.728V6.088ZM138.6 4.288C137.912 4.288 137.352 4.088 136.92 3.688C136.488 3.288 136.272 2.792 136.272 2.2C136.272 1.608 136.488 1.112 136.92 0.711999C137.352 0.311999 137.912 0.111999 138.6 0.111999C139.288 0.111999 139.848 0.303999 140.28 0.688C140.712 1.072 140.928 1.552 140.928 2.128C140.928 2.752 140.712 3.272 140.28 3.688C139.848 4.088 139.288 4.288 138.6 4.288ZM150.187 19.192C148.811 19.192 147.571 18.912 146.467 18.352C145.379 17.776 144.523 16.984 143.899 15.976C143.291 14.968 142.987 13.824 142.987 12.544C142.987 11.264 143.291 10.12 143.899 9.112C144.523 8.104 145.379 7.32 146.467 6.76C147.571 6.184 148.811 5.896 150.187 5.896C151.547 5.896 152.731 6.184 153.739 6.76C154.763 7.32 155.507 8.128 155.971 9.184L153.067 10.744C152.395 9.56 151.427 8.968 150.163 8.968C149.187 8.968 148.379 9.288 147.739 9.928C147.099 10.568 146.779 11.44 146.779 12.544C146.779 13.648 147.099 14.52 147.739 15.16C148.379 15.8 149.187 16.12 150.163 16.12C151.443 16.12 152.411 15.528 153.067 14.344L155.971 15.928C155.507 16.952 154.763 17.752 153.739 18.328C152.731 18.904 151.547 19.192 150.187 19.192ZM164.106 19.192C162.746 19.192 161.522 18.912 160.434 18.352C159.362 17.776 158.522 16.984 157.914 15.976C157.306 14.968 157.002 13.824 157.002 12.544C157.002 11.264 157.306 10.12 157.914 9.112C158.522 8.104 159.362 7.32 160.434 6.76C161.522 6.184 162.746 5.896 164.106 5.896C165.466 5.896 166.682 6.184 167.754 6.76C168.826 7.32 169.666 8.104 170.274 9.112C170.882 10.12 171.186 11.264 171.186 12.544C171.186 13.824 170.882 14.968 170.274 15.976C169.666 16.984 168.826 17.776 167.754 18.352C166.682 18.912 165.466 19.192 164.106 19.192ZM164.106 16.12C165.066 16.12 165.85 15.8 166.458 15.16C167.082 14.504 167.394 13.632 167.394 12.544C167.394 11.456 167.082 10.592 166.458 9.952C165.85 9.296 165.066 8.968 164.106 8.968C163.146 8.968 162.354 9.296 161.73 9.952C161.106 10.592 160.794 11.456 160.794 12.544C160.794 13.632 161.106 14.504 161.73 15.16C162.354 15.8 163.146 16.12 164.106 16.12ZM181.537 5.896C183.137 5.896 184.425 6.376 185.401 7.336C186.393 8.296 186.889 9.72 186.889 11.608V19H183.145V12.184C183.145 11.16 182.921 10.4 182.473 9.904C182.025 9.392 181.377 9.136 180.529 9.136C179.585 9.136 178.833 9.432 178.273 10.024C177.713 10.6 177.433 11.464 177.433 12.616V19H173.689V6.088H177.265V7.6C177.761 7.056 178.377 6.64 179.113 6.352C179.849 6.048 180.657 5.896 181.537 5.896Z" fill="white"/>
</svg>
