<svg width="18" height="20" viewBox="0 0 18 20" fill="none" xmlns="http://www.w3.org/2000/svg">
<path fill-rule="evenodd" clip-rule="evenodd" d="M14.2526 14.6585C13.8889 15.0741 13.2571 15.1163 12.8415 14.7526C12.4259 14.3889 12.3837 13.7571 12.7474 13.3415L14.7962 11L5 11C4.44772 11 4 10.5523 4 10C4 9.44772 4.44772 9 5 9L14.7962 9L12.7474 6.65851C12.3837 6.24287 12.4259 5.61111 12.8415 5.24742C13.2571 4.88374 13.8889 4.92586 14.2526 5.3415L17.7526 9.34149C18.0825 9.71852 18.0825 10.2815 17.7526 10.6585L14.2526 14.6585ZM5 2C5.55229 2 6 1.55229 6 1C6 0.447716 5.55229 5.44107e-07 5 5.68248e-07L2 6.99382e-07C0.895432 7.47664e-07 3.91405e-08 0.895431 8.74228e-08 2L7.86805e-07 18C8.35087e-07 19.1046 0.89543 20 2 20L5 20C5.55229 20 6 19.5523 6 19C6 18.4477 5.55229 18 5 18L2 18L2 2L5 2Z" fill="#DA214D"/>
</svg>
