<svg width="177" height="20" viewBox="0 0 177 20" fill="none" xmlns="http://www.w3.org/2000/svg">
<path d="M10.032 19.288C8.32 19.288 6.768 18.92 5.376 18.184C4 17.432 2.912 16.4 2.112 15.088C1.328 13.76 0.936 12.264 0.936 10.6C0.936 8.936 1.328 7.448 2.112 6.136C2.912 4.808 4 3.776 5.376 3.04C6.768 2.288 8.328 1.912 10.056 1.912C11.512 1.912 12.824 2.168 13.992 2.68C15.176 3.192 16.168 3.928 16.968 4.888L14.472 7.192C13.336 5.88 11.928 5.224 10.248 5.224C9.208 5.224 8.28 5.456 7.464 5.92C6.648 6.368 6.008 7 5.544 7.816C5.096 8.632 4.872 9.56 4.872 10.6C4.872 11.64 5.096 12.568 5.544 13.384C6.008 14.2 6.648 14.84 7.464 15.304C8.28 15.752 9.208 15.976 10.248 15.976C11.928 15.976 13.336 15.312 14.472 13.984L16.968 16.288C16.168 17.264 15.176 18.008 13.992 18.52C12.808 19.032 11.488 19.288 10.032 19.288ZM24.4438 5.896C26.4438 5.896 27.9798 6.376 29.0518 7.336C30.1238 8.28 30.6598 9.712 30.6598 11.632V19H27.1558V17.392C26.4518 18.592 25.1398 19.192 23.2198 19.192C22.2278 19.192 21.3638 19.024 20.6278 18.688C19.9078 18.352 19.3558 17.888 18.9718 17.296C18.5878 16.704 18.3958 16.032 18.3958 15.28C18.3958 14.08 18.8438 13.136 19.7398 12.448C20.6518 11.76 22.0518 11.416 23.9398 11.416H26.9158C26.9158 10.6 26.6678 9.976 26.1718 9.544C25.6758 9.096 24.9318 8.872 23.9398 8.872C23.2518 8.872 22.5718 8.984 21.8998 9.208C21.2438 9.416 20.6838 9.704 20.2198 10.072L18.8758 7.456C19.5798 6.96 20.4198 6.576 21.3958 6.304C22.3878 6.032 23.4038 5.896 24.4438 5.896ZM24.1558 16.672C24.7958 16.672 25.3638 16.528 25.8598 16.24C26.3558 15.936 26.7078 15.496 26.9158 14.92V13.6H24.3478C22.8118 13.6 22.0438 14.104 22.0438 15.112C22.0438 15.592 22.2278 15.976 22.5958 16.264C22.9798 16.536 23.4998 16.672 24.1558 16.672ZM38.3923 19.192C37.3203 19.192 36.2723 19.064 35.2483 18.808C34.2243 18.536 33.4083 18.2 32.8003 17.8L34.0483 15.112C34.6243 15.48 35.3203 15.784 36.1363 16.024C36.9523 16.248 37.7523 16.36 38.5363 16.36C40.1203 16.36 40.9123 15.968 40.9123 15.184C40.9123 14.816 40.6963 14.552 40.2643 14.392C39.8323 14.232 39.1683 14.096 38.2723 13.984C37.2163 13.824 36.3443 13.64 35.6563 13.432C34.9683 13.224 34.3683 12.856 33.8563 12.328C33.3603 11.8 33.1123 11.048 33.1123 10.072C33.1123 9.256 33.3443 8.536 33.8083 7.912C34.2883 7.272 34.9763 6.776 35.8723 6.424C36.7843 6.072 37.8563 5.896 39.0883 5.896C40.0003 5.896 40.9043 6 41.8003 6.208C42.7123 6.4 43.4643 6.672 44.0563 7.024L42.8083 9.688C41.6723 9.048 40.4323 8.728 39.0883 8.728C38.2883 8.728 37.6883 8.84 37.2883 9.064C36.8883 9.288 36.6883 9.576 36.6883 9.928C36.6883 10.328 36.9043 10.608 37.3363 10.768C37.7683 10.928 38.4563 11.08 39.4003 11.224C40.4563 11.4 41.3203 11.592 41.9923 11.8C42.6643 11.992 43.2483 12.352 43.7443 12.88C44.2403 13.408 44.4883 14.144 44.4883 15.088C44.4883 15.888 44.2483 16.6 43.7683 17.224C43.2883 17.848 42.5843 18.336 41.6563 18.688C40.7443 19.024 39.6563 19.192 38.3923 19.192ZM46.7983 6.088H50.5423V19H46.7983V6.088ZM48.6703 4.288C47.9823 4.288 47.4223 4.088 46.9903 3.688C46.5583 3.288 46.3423 2.792 46.3423 2.2C46.3423 1.608 46.5583 1.112 46.9903 0.711999C47.4223 0.311999 47.9823 0.111999 48.6703 0.111999C49.3583 0.111999 49.9183 0.303999 50.3503 0.688C50.7823 1.072 50.9983 1.552 50.9983 2.128C50.9983 2.752 50.7823 3.272 50.3503 3.688C49.9183 4.088 49.3583 4.288 48.6703 4.288ZM61.8651 5.896C63.4651 5.896 64.7531 6.376 65.7291 7.336C66.7211 8.296 67.2171 9.72 67.2171 11.608V19H63.4731V12.184C63.4731 11.16 63.2491 10.4 62.8011 9.904C62.3531 9.392 61.7051 9.136 60.8571 9.136C59.9131 9.136 59.1611 9.432 58.6011 10.024C58.0411 10.6 57.7611 11.464 57.7611 12.616V19H54.0171V6.088H57.5931V7.6C58.0891 7.056 58.7051 6.64 59.4411 6.352C60.1771 6.048 60.9851 5.896 61.8651 5.896ZM76.8954 19.192C75.5354 19.192 74.3114 18.912 73.2234 18.352C72.1514 17.776 71.3114 16.984 70.7034 15.976C70.0954 14.968 69.7914 13.824 69.7914 12.544C69.7914 11.264 70.0954 10.12 70.7034 9.112C71.3114 8.104 72.1514 7.32 73.2234 6.76C74.3114 6.184 75.5354 5.896 76.8954 5.896C78.2554 5.896 79.4714 6.184 80.5434 6.76C81.6154 7.32 82.4554 8.104 83.0634 9.112C83.6714 10.12 83.9754 11.264 83.9754 12.544C83.9754 13.824 83.6714 14.968 83.0634 15.976C82.4554 16.984 81.6154 17.776 80.5434 18.352C79.4714 18.912 78.2554 19.192 76.8954 19.192ZM76.8954 16.12C77.8554 16.12 78.6394 15.8 79.2474 15.16C79.8714 14.504 80.1834 13.632 80.1834 12.544C80.1834 11.456 79.8714 10.592 79.2474 9.952C78.6394 9.296 77.8554 8.968 76.8954 8.968C75.9354 8.968 75.1434 9.296 74.5194 9.952C73.8954 10.592 73.5834 11.456 73.5834 12.544C73.5834 13.632 73.8954 14.504 74.5194 15.16C75.1434 15.8 75.9354 16.12 76.8954 16.12Z" fill="#EB2655"/>
<path d="M108.827 19L108.803 8.92L103.859 17.224H102.107L97.1869 9.136V19H93.5389V2.2H96.7549L103.043 12.64L109.235 2.2H112.427L112.475 19H108.827ZM121.405 5.896C123.405 5.896 124.941 6.376 126.013 7.336C127.085 8.28 127.621 9.712 127.621 11.632V19H124.117V17.392C123.413 18.592 122.101 19.192 120.181 19.192C119.189 19.192 118.325 19.024 117.589 18.688C116.869 18.352 116.317 17.888 115.933 17.296C115.549 16.704 115.357 16.032 115.357 15.28C115.357 14.08 115.805 13.136 116.701 12.448C117.613 11.76 119.013 11.416 120.901 11.416H123.877C123.877 10.6 123.629 9.976 123.133 9.544C122.637 9.096 121.893 8.872 120.901 8.872C120.213 8.872 119.533 8.984 118.861 9.208C118.205 9.416 117.645 9.704 117.181 10.072L115.837 7.456C116.541 6.96 117.381 6.576 118.357 6.304C119.349 6.032 120.365 5.896 121.405 5.896ZM121.117 16.672C121.757 16.672 122.325 16.528 122.821 16.24C123.317 15.936 123.669 15.496 123.877 14.92V13.6H121.309C119.773 13.6 119.005 14.104 119.005 15.112C119.005 15.592 119.189 15.976 119.557 16.264C119.941 16.536 120.461 16.672 121.117 16.672ZM135.353 19.192C134.281 19.192 133.233 19.064 132.209 18.808C131.185 18.536 130.369 18.2 129.761 17.8L131.009 15.112C131.585 15.48 132.281 15.784 133.097 16.024C133.913 16.248 134.713 16.36 135.497 16.36C137.081 16.36 137.873 15.968 137.873 15.184C137.873 14.816 137.657 14.552 137.225 14.392C136.793 14.232 136.129 14.096 135.233 13.984C134.177 13.824 133.305 13.64 132.617 13.432C131.929 13.224 131.329 12.856 130.817 12.328C130.321 11.8 130.073 11.048 130.073 10.072C130.073 9.256 130.305 8.536 130.769 7.912C131.249 7.272 131.937 6.776 132.833 6.424C133.745 6.072 134.817 5.896 136.049 5.896C136.961 5.896 137.865 6 138.761 6.208C139.673 6.4 140.425 6.672 141.017 7.024L139.769 9.688C138.633 9.048 137.393 8.728 136.049 8.728C135.249 8.728 134.649 8.84 134.249 9.064C133.849 9.288 133.649 9.576 133.649 9.928C133.649 10.328 133.865 10.608 134.297 10.768C134.729 10.928 135.417 11.08 136.361 11.224C137.417 11.4 138.281 11.592 138.953 11.8C139.625 11.992 140.209 12.352 140.705 12.88C141.201 13.408 141.449 14.144 141.449 15.088C141.449 15.888 141.209 16.6 140.729 17.224C140.249 17.848 139.545 18.336 138.617 18.688C137.705 19.024 136.617 19.192 135.353 19.192ZM152.087 18.376C151.719 18.648 151.263 18.856 150.719 19C150.191 19.128 149.631 19.192 149.039 19.192C147.503 19.192 146.311 18.8 145.463 18.016C144.631 17.232 144.215 16.08 144.215 14.56V9.256H142.223V6.376H144.215V3.232H147.959V6.376H151.175V9.256H147.959V14.512C147.959 15.056 148.095 15.48 148.367 15.784C148.655 16.072 149.055 16.216 149.567 16.216C150.159 16.216 150.663 16.056 151.079 15.736L152.087 18.376ZM166.439 12.592C166.439 12.64 166.415 12.976 166.367 13.6H156.599C156.775 14.4 157.191 15.032 157.847 15.496C158.503 15.96 159.319 16.192 160.295 16.192C160.967 16.192 161.559 16.096 162.071 15.904C162.599 15.696 163.087 15.376 163.535 14.944L165.527 17.104C164.311 18.496 162.535 19.192 160.199 19.192C158.743 19.192 157.455 18.912 156.335 18.352C155.215 17.776 154.351 16.984 153.743 15.976C153.135 14.968 152.831 13.824 152.831 12.544C152.831 11.28 153.127 10.144 153.719 9.136C154.327 8.112 155.151 7.32 156.191 6.76C157.247 6.184 158.423 5.896 159.719 5.896C160.983 5.896 162.127 6.168 163.151 6.712C164.175 7.256 164.975 8.04 165.551 9.064C166.143 10.072 166.439 11.248 166.439 12.592ZM159.743 8.728C158.895 8.728 158.183 8.968 157.607 9.448C157.031 9.928 156.679 10.584 156.551 11.416H162.911C162.783 10.6 162.431 9.952 161.855 9.472C161.279 8.976 160.575 8.728 159.743 8.728ZM172.507 7.792C172.955 7.168 173.555 6.696 174.307 6.376C175.075 6.056 175.955 5.896 176.947 5.896V9.352C176.531 9.32 176.251 9.304 176.107 9.304C175.035 9.304 174.195 9.608 173.587 10.216C172.979 10.808 172.675 11.704 172.675 12.904V19H168.931V6.088H172.507V7.792Z" fill="white"/>
</svg>
