<svg width="41" height="41" viewBox="0 0 41 41" fill="none" xmlns="http://www.w3.org/2000/svg">
<rect width="41" height="41" rx="10" fill="#EB2655"/>
<path d="M20.1694 5.0699C17.0833 5.0699 16.3853 7.86202 16.4221 9.25807V20.3898C16.4221 23.4758 18.9203 24.1738 20.1694 24.1371H31.9624C33.1013 24.2106 35.379 23.564 35.379 20.3898C35.379 17.2156 33.1013 16.4955 31.9624 16.5323H26.121C25.5699 16.5323 23.9167 16.6425 23.9167 14.6586C23.9167 13.0715 25.3862 12.6747 26.121 12.6747H30.6398C32.2195 12.9319 35.379 12.6086 35.379 9.25807C35.379 5.90753 33.1013 5.0699 31.9624 5.0699H20.1694Z" fill="white"/>
<path d="M8.48657 5.1801C5.48872 5.1801 4.88621 7.97221 4.95968 9.36827V30.8602C4.95968 35.0043 7.75179 35.5995 9.14785 35.379H31.9624C33.1013 35.4892 35.379 34.9161 35.379 31.7419C35.379 28.5677 33.1013 27.9211 31.9624 27.9946H16.6425C13.2038 27.9946 12.5645 25.5699 12.6747 24.3575V9.36827C12.6747 7.93548 12.2339 5.1801 8.48657 5.1801Z" fill="white"/>
</svg>
